<?xml version="1.0" standalone="no"?>
<!DOCTYPE svg PUBLIC "-//W3C//DTD SVG 20010904//EN"
 "http://www.w3.org/TR/2001/REC-SVG-20010904/DTD/svg10.dtd">
<svg version="1.0" xmlns="http://www.w3.org/2000/svg"
 width="256.000000pt" height="256.000000pt" viewBox="0 0 256.000000 256.000000"
 preserveAspectRatio="xMidYMid meet">
<metadata>
Created by potrace 1.11, written by Peter Selinger 2001-2013
</metadata>
<g transform="translate(0.000000,256.000000) scale(0.100000,-0.100000)"
fill="#000000" stroke="none">
<path d="M1658 2388 c-12 -40 -58 -89 -104 -109 -23 -10 -108 -30 -190 -44
-232 -40 -300 -64 -400 -143 l-50 -40 -60 10 c-32 5 -76 13 -96 19 -36 9 -42
7 -110 -39 -40 -27 -106 -68 -146 -92 -40 -23 -71 -44 -70 -46 2 -1 44 8 94
21 87 23 235 47 242 41 2 -2 -21 -9 -50 -16 -179 -43 -667 -245 -707 -294 -21
-25 12 -21 106 14 104 38 196 59 286 65 l72 6 -70 -24 c-38 -13 -99 -37 -135
-53 l-65 -29 140 -6 c135 -6 325 -40 325 -58 0 -5 11 -24 24 -43 l24 -36 -112
-5 c-180 -8 -237 -44 -103 -66 75 -12 163 -47 184 -72 21 -26 2 -38 -47 -29
-25 5 -76 5 -115 0 -179 -24 -219 -65 -86 -88 40 -7 93 -23 119 -36 52 -26
140 -101 131 -110 -3 -3 -24 3 -46 14 -79 38 -189 35 -223 -6 -17 -19 -1 -37
49 -54 102 -33 151 -110 150 -235 l0 -80 -14 43 c-26 83 -55 115 -149 162 -47
24 -57 27 -51 13 29 -67 29 -93 6 -208 -14 -69 -21 -125 -17 -142 19 -75 95
-109 331 -144 118 -18 200 -22 513 -26 l372 -5 0 31 c0 34 11 39 31 15 50 -61
193 -120 251 -104 22 7 44 6 65 -1 64 -21 141 46 174 150 6 20 26 50 44 67 29
27 42 32 97 36 76 4 118 30 148 88 25 50 26 131 1 185 -13 29 -17 56 -14 95 4
46 1 60 -17 83 -17 22 -29 27 -64 27 -57 0 -104 32 -138 95 -44 83 -44 97 0
118 60 27 126 83 151 127 13 23 35 102 52 181 16 77 36 156 44 175 19 47 20
44 -18 44 -51 0 -116 -50 -191 -145 -37 -46 -83 -98 -102 -115 -41 -35 -74
-40 -74 -10 0 27 -158 191 -234 242 -58 40 -148 78 -184 78 -10 0 -22 3 -26 7
-11 12 -80 33 -107 33 -15 0 -38 -9 -53 -21 -21 -16 -35 -20 -61 -15 -35 7
-75 46 -75 74 0 28 85 96 174 140 145 71 191 137 184 262 -2 45 -4 50 -10 28z
m-4 -85 c-17 -93 -53 -129 -200 -198 -127 -61 -164 -95 -164 -155 0 -30 6 -43
30 -64 28 -23 86 -46 118 -46 25 0 14 -177 -14 -209 -6 -7 -225 123 -266 158
-52 44 -71 87 -58 131 13 45 55 104 97 136 39 29 174 94 197 94 9 0 16 5 16
11 0 18 -125 3 -214 -26 -89 -29 -169 -68 -245 -119 -30 -20 -56 -35 -58 -33
-2 3 19 30 48 61 91 100 164 131 406 171 168 28 246 56 284 99 12 14 24 26 26
26 2 0 1 -17 -3 -37z m776 -487 c0 -2 -6 -19 -14 -37 -8 -19 -25 -91 -40 -161
-14 -70 -34 -144 -45 -165 -18 -36 -81 -105 -81 -90 0 4 14 53 30 109 46 156
40 165 -32 41 -48 -82 -79 -116 -115 -127 -25 -8 -33 3 -56 82 l-16 52 33 14
c18 7 57 42 87 77 93 109 185 197 210 202 13 2 27 5 32 6 4 0 7 -1 7 -3z
m-290 -811 c0 -8 -13 -29 -30 -47 -51 -56 -38 -140 34 -216 41 -44 76 -62 122
-62 29 0 44 8 76 40 l40 40 -3 75 c-4 83 6 97 33 44 26 -50 24 -137 -5 -180
-43 -65 -142 -88 -225 -54 -42 18 -107 77 -128 116 -43 83 -32 190 25 241 31
27 61 29 61 3z m-324 -174 c-3 -5 -15 -11 -26 -14 -25 -6 -49 25 -51 68 -1 23
-3 25 -6 8 -2 -13 -10 -23 -16 -23 -8 0 -9 -3 -1 -8 5 -4 18 -18 27 -31 15
-23 15 -26 0 -43 -30 -33 -73 -16 -73 29 0 13 6 26 14 29 11 4 10 12 -6 42
-16 30 -18 42 -9 64 l10 28 71 -70 c39 -39 69 -74 66 -79z"/>
</g>
</svg>
